# Blender 4.3.2
# www.blender.org
mtllib Column.mtl
o Column
v 0.000000 -0.056141 -0.603524
v 0.000000 4.992388 -0.597987
v 0.230959 -0.056141 -0.557584
v 0.228840 4.992388 -0.552468
v 0.426756 -0.056141 -0.426756
v 0.422841 4.992388 -0.422841
v 0.557584 -0.056141 -0.230959
v 0.552468 4.992388 -0.228840
v 0.603524 -0.056141 -0.000000
v 0.597987 4.992388 -0.000000
v 0.557584 -0.056141 0.230959
v 0.552468 4.992388 0.228840
v 0.426756 -0.056141 0.426756
v 0.422841 4.992388 0.422841
v 0.230959 -0.056141 0.557584
v 0.228840 4.992388 0.552468
v 0.000000 -0.056141 0.603524
v 0.000000 4.992388 0.597987
v -0.230959 -0.056141 0.557584
v -0.228840 4.992388 0.552468
v -0.426756 -0.056141 0.426756
v -0.422841 4.992388 0.422841
v -0.557584 -0.056141 0.230959
v -0.552468 4.992388 0.228840
v -0.603524 -0.056141 -0.000000
v -0.597987 4.992388 -0.000000
v -0.557584 -0.056141 -0.230959
v -0.552468 4.992388 -0.228840
v -0.426756 -0.056141 -0.426756
v -0.422841 4.992388 -0.422841
v -0.230959 -0.056141 -0.557584
v -0.228840 4.992388 -0.552468
v 0.000000 4.704366 -0.597987
v 0.000000 0.234548 -0.603524
v 0.230959 0.234548 -0.557584
v 0.228840 4.704366 -0.552468
v 0.426756 0.234548 -0.426756
v 0.422841 4.704366 -0.422841
v 0.557584 0.234548 -0.230959
v 0.552468 4.704366 -0.228840
v 0.603524 0.234548 -0.000000
v 0.597987 4.704366 -0.000000
v 0.557584 0.234548 0.230959
v 0.552468 4.704366 0.228840
v 0.426756 0.234548 0.426756
v 0.422841 4.704366 0.422841
v 0.230959 0.234548 0.557584
v 0.228840 4.704366 0.552468
v 0.000000 0.234548 0.603524
v 0.000000 4.704366 0.597987
v -0.230959 0.234548 0.557584
v -0.228840 4.704366 0.552468
v -0.426756 0.234548 0.426756
v -0.422841 4.704366 0.422841
v -0.557584 0.234548 0.230959
v -0.552468 4.704366 0.228840
v -0.603524 0.234548 -0.000000
v -0.597987 4.704366 -0.000000
v -0.557584 0.234548 -0.230959
v -0.552468 4.704366 -0.228840
v -0.426756 0.234548 -0.426756
v -0.422841 4.704366 -0.422841
v -0.230959 0.234548 -0.557584
v -0.228840 4.704366 -0.552468
v -0.191342 4.697468 -0.461940
v -0.191342 0.240113 -0.461940
v 0.000000 0.240113 -0.500000
v 0.000000 4.697468 -0.500000
v -0.353553 4.697468 -0.353553
v -0.353553 0.240113 -0.353553
v -0.461940 4.697468 -0.191342
v -0.461940 0.240113 -0.191342
v -0.500000 4.697468 0.000000
v -0.500000 0.240113 0.000000
v -0.461940 4.697468 0.191342
v -0.461940 0.240113 0.191342
v -0.353553 4.697468 0.353553
v -0.353553 0.240113 0.353553
v -0.191342 4.697468 0.461940
v -0.191342 0.240113 0.461940
v 0.191342 4.697468 0.461940
v 0.191342 0.240113 0.461940
v 0.353553 4.697468 0.353553
v 0.353553 0.240113 0.353553
v 0.461940 4.697468 0.191342
v 0.461940 0.240113 0.191342
v 0.500000 4.697468 0.000000
v 0.500000 0.240113 0.000000
v 0.461940 4.697468 -0.191342
v 0.461940 0.240113 -0.191342
v 0.353553 4.697468 -0.353553
v 0.353553 0.240113 -0.353553
v 0.191342 4.697468 -0.461940
v 0.191342 0.240113 -0.461940
v -0.038679 4.697468 0.492306
v 0.038679 4.697468 0.492306
v 0.000000 4.700237 0.539340
v 0.038679 0.240113 0.492306
v -0.038679 0.240113 0.492306
v 0.000000 0.237996 0.539380
vn -0.3827 -0.0000 -0.9239
vn -0.0000 -0.0000 -1.0000
vn 0.7071 -0.0000 -0.7071
vn 0.9239 -0.0000 -0.3827
vn 1.0000 -0.0000 -0.0000
vn 0.9239 -0.0000 0.3827
vn 0.7071 -0.0000 0.7071
vn 0.3827 -0.0000 0.9239
vn -0.0000 -0.0000 1.0000
vn -0.3827 -0.0000 0.9239
vn -0.7071 -0.0000 0.7071
vn -0.9239 -0.0000 0.3827
vn -1.0000 -0.0000 -0.0000
vn -0.9239 -0.0000 -0.3827
vn -0.7071 -0.0000 -0.7071
vn -0.0000 1.0000 -0.0000
vn 0.3827 -0.0000 -0.9239
vn -0.0000 -1.0000 -0.0000
vn -0.0000 0.9986 -0.0537
vn 0.0205 0.9986 -0.0496
vn -0.0497 -0.9975 -0.0497
vn -0.0269 -0.9975 -0.0649
vn -0.0702 -0.9975 -0.0000
vn -0.0649 -0.9975 -0.0269
vn -0.0649 -0.9975 0.0269
vn -0.0497 -0.9975 0.0497
vn -0.0269 -0.9975 0.0649
vn 0.0980 -0.0000 0.9952
vn 0.0205 0.9986 0.0496
vn 0.0079 0.9986 0.0514
vn -0.0000 0.9987 0.0518
vn -0.0000 0.9986 0.0537
vn 0.0497 -0.9975 0.0497
vn 0.0269 -0.9975 0.0649
vn 0.0649 -0.9975 0.0269
vn 0.0702 -0.9975 -0.0000
vn 0.0649 -0.9975 -0.0269
vn 0.0497 -0.9975 -0.0497
vn 0.0269 -0.9975 -0.0649
vn -0.0000 -0.9975 -0.0702
vn 0.0380 0.9986 -0.0380
vn 0.0496 0.9986 -0.0205
vn 0.0537 0.9986 -0.0000
vn 0.0496 0.9986 0.0205
vn 0.0380 0.9986 0.0380
vn -0.0079 0.9986 0.0514
vn -0.0205 0.9986 0.0496
vn -0.0380 0.9986 0.0380
vn -0.0496 0.9986 0.0205
vn -0.0537 0.9986 -0.0000
vn -0.0496 0.9986 -0.0205
vn -0.0380 0.9986 -0.0380
vn -0.0205 0.9986 -0.0496
vn -0.0000 -0.9975 0.0702
vn -0.0000 -0.9977 0.0677
vn 0.0103 -0.9977 0.0672
vn -0.0103 -0.9977 0.0672
vn -0.0980 -0.0000 0.9952
vt 0.062500 0.500000
vt 0.062500 0.524083
vt 0.000000 0.524083
vt 0.000000 0.500000
vt 0.875000 0.500000
vt 0.875000 0.524083
vt 0.812500 0.524083
vt 0.812500 0.500000
vt 0.812500 0.524083
vt 0.750000 0.524083
vt 0.750000 0.500000
vt 0.750000 0.524083
vt 0.687500 0.524083
vt 0.687500 0.500000
vt 0.625000 0.524083
vt 0.625000 0.500000
vt 0.562500 0.524083
vt 0.562500 0.500000
vt 0.500000 0.524083
vt 0.500000 0.500000
vt 0.437500 0.524083
vt 0.437500 0.500000
vt 0.437500 0.524083
vt 0.375000 0.524083
vt 0.375000 0.500000
vt 0.375000 0.524083
vt 0.312500 0.524083
vt 0.312500 0.500000
vt 0.250000 0.524083
vt 0.250000 0.500000
vt 0.187500 0.524083
vt 0.187500 0.500000
vt 0.187500 0.524083
vt 0.125000 0.524083
vt 0.125000 0.500000
vt 0.341844 0.471731
vt 0.250000 0.490000
vt 0.158156 0.471731
vt 0.080294 0.419706
vt 0.028269 0.341844
vt 0.010000 0.250000
vt 0.028269 0.158156
vt 0.080294 0.080294
vt 0.158156 0.028269
vt 0.250000 0.010000
vt 0.341844 0.028269
vt 0.419706 0.080294
vt 0.471731 0.158156
vt 0.490000 0.250000
vt 0.471731 0.341844
vt 0.419706 0.419706
vt 1.000000 0.500000
vt 1.000000 0.524083
vt 0.937500 0.524083
vt 0.937500 0.500000
vt 0.750000 0.490000
vt 0.841844 0.471731
vt 0.919706 0.419706
vt 0.971731 0.341844
vt 0.990000 0.250000
vt 0.971731 0.158156
vt 0.919706 0.080294
vt 0.841844 0.028269
vt 0.750000 0.010000
vt 0.658156 0.028269
vt 0.580294 0.080294
vt 0.528269 0.158156
vt 0.510000 0.250000
vt 0.528269 0.341844
vt 0.580294 0.419706
vt 0.658156 0.471731
vt 0.875000 0.524083
vt 0.125000 0.975917
vt 0.125000 1.000000
vt 0.062500 1.000000
vt 0.062500 0.975917
vt 0.187500 0.975917
vt 0.187500 1.000000
vt 0.125000 0.975917
vt 0.250000 0.975917
vt 0.250000 1.000000
vt 0.187500 0.975917
vt 0.312500 0.975917
vt 0.312500 1.000000
vt 0.250000 0.975917
vt 0.375000 0.975917
vt 0.375000 1.000000
vt 0.312500 0.975917
vt 0.437500 0.975917
vt 0.437500 1.000000
vt 0.375000 0.975917
vt 0.500000 0.975917
vt 0.500000 1.000000
vt 0.437500 0.975917
vt 0.562500 0.975917
vt 0.562500 1.000000
vt 0.500000 0.975917
vt 0.625000 0.975917
vt 0.625000 1.000000
vt 0.562500 0.975917
vt 0.687500 0.975917
vt 0.687500 1.000000
vt 0.625000 0.975917
vt 0.750000 0.975917
vt 0.750000 1.000000
vt 0.687500 0.975917
vt 0.812500 0.975917
vt 0.812500 1.000000
vt 0.750000 0.975917
vt 0.875000 0.975917
vt 0.875000 1.000000
vt 0.812500 0.975917
vt 0.937500 0.975917
vt 0.937500 1.000000
vt 0.875000 0.975917
vt 1.000000 0.975917
vt 1.000000 1.000000
vt 0.937500 0.975917
vt 1.000000 0.527132
vt 0.937500 0.527132
vt 0.062500 0.972868
vt 0.125000 0.972868
vt 0.187500 0.972868
vt 0.250000 0.972868
vt 0.250000 0.972868
vt 0.312500 0.972868
vt 0.312500 0.972868
vt 0.375000 0.972868
vt 0.375000 0.972868
vt 0.437500 0.972868
vt 0.512634 0.527132
vt 0.562500 0.527132
vt 0.562500 0.972868
vt 0.512634 0.972868
vt 0.500000 0.525972
vt 0.562500 0.972868
vt 0.625000 0.972868
vt 0.625000 0.972868
vt 0.687500 0.972868
vt 0.687500 0.972868
vt 0.750000 0.972868
vt 0.750000 0.972868
vt 0.812500 0.972868
vt 0.812500 0.972868
vt 0.875000 0.972868
vt 0.875000 0.972868
vt 0.937500 0.972868
vt 0.937500 0.972868
vt 1.000000 0.972868
vt 0.062500 0.975917
vt 0.000000 1.000000
vt 0.000000 0.975917
vt 0.125000 0.972868
vt 0.187500 0.972868
vt 0.875000 0.527132
vt 0.875000 0.527132
vt 0.812500 0.527132
vt 0.812500 0.527132
vt 0.750000 0.527132
vt 0.687500 0.527132
vt 0.625000 0.527132
vt 0.487366 0.527132
vt 0.437500 0.527132
vt 0.437500 0.527132
vt 0.375000 0.527132
vt 0.312500 0.527132
vt 0.250000 0.527132
vt 0.187500 0.527132
vt 0.125000 0.527132
vt 0.062500 0.527132
vt 0.000000 0.527132
vt 0.500000 0.974092
vt 0.437500 0.972868
vt 0.487366 0.972868
vt 0.500000 0.974092
vt 0.062500 0.972868
vt 0.000000 0.972868
vt 0.511673 0.972868
vt 0.488327 0.527132
s 1
f 31/1/1 63/2/1 34/3/2 1/4/2
f 5/5/3 37/6/3 39/7/4 7/8/4
f 7/8/4 39/9/4 41/10/5 9/11/5
f 9/11/5 41/12/5 43/13/6 11/14/6
f 11/14/6 43/13/6 45/15/7 13/16/7
f 13/16/7 45/15/7 47/17/8 15/18/8
f 15/18/8 47/17/8 49/19/9 17/20/9
f 17/20/9 49/19/9 51/21/10 19/22/10
f 19/22/10 51/23/10 53/24/11 21/25/11
f 21/25/11 53/26/11 55/27/12 23/28/12
f 23/28/12 55/27/12 57/29/13 25/30/13
f 25/30/13 57/29/13 59/31/14 27/32/14
f 27/32/14 59/33/14 61/34/15 29/35/15
f 29/35/15 61/34/15 63/2/1 31/1/1
f 4/36/16 2/37/16 32/38/16 30/39/16 28/40/16 26/41/16 24/42/16 22/43/16 20/44/16 18/45/16 16/46/16 14/47/16 12/48/16 10/49/16 8/50/16 6/51/16
f 1/52/2 34/53/2 35/54/17 3/55/17
f 1/56/18 3/57/18 5/58/18 7/59/18 9/60/18 11/61/18 13/62/18 15/63/18 17/64/18 19/65/18 21/66/18 23/67/18 25/68/18 27/69/18 29/70/18 31/71/18
f 3/55/17 35/54/17 37/72/3 5/5/3
f 62/73/15 30/74/15 32/75/1 64/76/1
f 60/77/14 28/78/14 30/74/15 62/79/15
f 58/80/13 26/81/13 28/78/14 60/82/14
f 56/83/12 24/84/12 26/81/13 58/85/13
f 54/86/11 22/87/11 24/84/12 56/88/12
f 52/89/10 20/90/10 22/87/11 54/91/11
f 50/92/9 18/93/9 20/90/10 52/94/10
f 48/95/8 16/96/8 18/93/9 50/97/9
f 46/98/7 14/99/7 16/96/8 48/100/8
f 44/101/6 12/102/6 14/99/7 46/103/7
f 42/104/5 10/105/5 12/102/6 44/106/6
f 40/107/4 8/108/4 10/105/5 42/109/5
f 38/110/3 6/111/3 8/108/4 40/112/4
f 36/113/17 4/114/17 6/111/3 38/115/3
f 33/116/2 2/117/2 4/114/17 36/118/17
f 67/119/19 94/120/20 35/54/20 34/53/19
f 62/73/21 64/76/22 65/121/22 69/122/21
f 58/80/23 60/82/24 71/123/24 73/124/23
f 56/83/25 58/85/23 73/125/23 75/126/25
f 54/86/26 56/88/25 75/127/25 77/128/26
f 52/89/27 54/91/26 77/129/26 79/130/27
f 98/131/28 82/132/8 81/133/8 96/134/28
f 82/132/29 98/131/30 100/135/31 49/19/32 47/17/29
f 46/98/33 48/100/34 81/136/34 83/137/33
f 44/101/35 46/103/33 83/138/33 85/139/35
f 42/104/36 44/106/35 85/140/35 87/141/36
f 40/107/37 42/109/36 87/142/36 89/143/37
f 38/110/38 40/112/37 89/144/37 91/145/38
f 36/113/39 38/115/38 91/146/38 93/147/39
f 33/116/40 36/118/39 93/148/39 68/149/40
f 64/150/1 32/75/1 2/151/2 33/152/2
f 60/77/24 62/79/21 69/153/21 71/154/24
f 94/120/20 92/155/41 37/72/41 35/54/20
f 92/156/41 90/157/42 39/7/42 37/6/41
f 90/158/42 88/159/43 41/10/43 39/9/42
f 88/159/43 86/160/44 43/13/44 41/12/43
f 86/160/44 84/161/45 45/15/45 43/13/44
f 84/161/45 82/132/29 47/17/29 45/15/45
f 100/135/31 99/162/46 80/163/47 51/21/47 49/19/32
f 80/164/47 78/165/48 53/24/48 51/23/47
f 78/165/48 76/166/49 55/27/49 53/26/48
f 76/166/49 74/167/50 57/29/50 55/27/49
f 74/167/50 72/168/51 59/31/51 57/29/50
f 72/168/51 70/169/52 61/34/52 59/33/51
f 66/170/53 67/171/19 34/3/19 63/2/53
f 70/169/52 66/170/53 63/2/53 61/34/52
f 94/120/17 67/119/2 68/149/2 93/148/17
f 92/155/3 94/120/17 93/147/17 91/146/3
f 90/157/4 92/156/3 91/145/3 89/144/4
f 88/159/5 90/158/4 89/143/4 87/142/5
f 86/160/6 88/159/5 87/141/5 85/140/6
f 84/161/7 86/160/6 85/139/6 83/138/7
f 82/132/8 84/161/7 83/137/7 81/136/8
f 48/95/34 50/97/54 97/172/55 96/134/56 81/133/34
f 50/92/54 52/94/27 79/173/27 95/174/57 97/175/55
f 78/165/11 80/164/10 79/130/10 77/129/11
f 76/166/12 78/165/11 77/128/11 75/127/12
f 74/167/13 76/166/12 75/126/12 73/125/13
f 72/168/14 74/167/13 73/124/13 71/123/14
f 70/169/15 72/168/14 71/154/14 69/153/15
f 66/170/1 70/169/15 69/122/15 65/121/1
f 67/171/2 66/170/1 65/176/1 68/177/2
f 64/150/22 33/152/40 68/177/40 65/176/22
f 95/174/57 96/178/56 97/172/55
f 98/131/30 99/179/46 100/135/31
f 95/174/58 99/162/58 98/131/28 96/134/28
f 80/163/10 99/162/58 95/174/58 79/173/10
